<?xml version="1.0" standalone="no"?><!DOCTYPE svg PUBLIC "-//W3C//DTD SVG 1.1//EN" "http://www.w3.org/Graphics/SVG/1.1/DTD/svg11.dtd"><svg width="20.01953125" height="20" viewBox="0 0 20.01953125 20" version="1.1" xmlns="http://www.w3.org/2000/svg" xmlns:xlink="http://www.w3.org/1999/xlink"><defs><style type="text/css"><![CDATA[
@font-face { font-family: ifont; src: url(http://at.alicdn.com/t/font_1442373896_4754455.eot?#iefix) format(embedded-opentype), url(http://at.alicdn.com/t/font_1442373896_4754455.woff) format(woff), url(http://at.alicdn.com/t/font_1442373896_4754455.ttf) format(truetype), url(http://at.alicdn.com/t/font_1442373896_4754455.svg#ifont) format(svg); }

]]></style></defs><g class="transform-group"><g transform="scale(0.01953125, 0.01953125)"><path d="M1.863 300.697l0 423.811 241.264 0 361.172 296.329L604.514 4.095 243.287 300.697 1.863 300.697 1.863 300.697zM742.988 251.957c-21.2-20.875-54.8-20.875-76 0.165-20.99 20.985-20.99 54.905 0.11 75.945l0-0.105c46.32 46.375 74.93 110.03 74.93 180.665 0 70.472-28.5 133.972-74.88 180.242-21.15 21.09-21.15 54.96-0.05 76.21 10.36 10.47 24.1 15.73 37.95 15.73 13.84 0 27.96-5.26 38.05-15.73 65.54-65.53 106.22-156.51 106.22-256.289C849.368 408.526 808.478 317.442 742.988 251.957zM866.178 128.832c-21.21-20.987-54.81-20.987-75.9 0-21.09 20.985-21.09 55.015 0 75.895 77.88 77.88 126.35 185.015 126.35 303.849 0 118.782-48.04 225.802-126.24 303.792-21.26 20.88-21.26 54.8 0 75.84 10.09 10.36 24.2 15.78 38.05 15.78 13.74 0 27.91-5.42 37.95-15.78 97.2-97.2 157.69-231.599 157.59-379.632C1023.487 360.541 963.318 225.822 866.178 128.832z" fill="#ff414b"></path></g></g></svg>